<svg xmlns="http://www.w3.org/2000/svg" viewBox="0 0 566.93 566.93"><defs><style>.cls-1{fill:#fff;}.cls-2{fill:#004899;}</style></defs><g id="Capa_2" data-name="Capa 2"><g id="Capa_1-2" data-name="Capa 1"><rect class="cls-1" width="566.93" height="566.93" rx="85.04"/><path class="cls-2" d="M429.91,184.43a6.22,6.22,0,0,1-1.41,0c-6.53-1.9-13-1.18-19.32.8a47.65,47.65,0,0,0-23.55,15.65A30.21,30.21,0,0,0,379.08,223c.74,9.1,7.37,15.86,16.75,17.35,11.92,1.9,22.12-1.82,31-9.74.93-.84,1.78-1.76,2.71-2.69.6,2.15.8,304.61.21,308.94H325.42V333.79a9.67,9.67,0,0,1,1.84-.34c9.13,0,16.62-3.88,23.08-9.92,7.54-7.07,11.4-16.17,13.61-26.06,2.39-10.68,2.44-21.48,1.31-32.31a144.69,144.69,0,0,0-17.73-55.93,93.48,93.48,0,0,0-18-23.34c-8.59-8-18.81-12.38-30.26-14.25-15.4-2.52-30.55-.89-45.54,2.92C236.1,179,219.65,186.24,205,197.16c-7.34,5.46-13.84,11.72-18.41,19.79-4.26,7.51-7,15.5-7.29,24.13-.57,18.37,11.75,29,24,31.19,3,.53,6.22.15,9.32,0,3.8-.19,7.58-.78,11.37-.81a14.39,14.39,0,0,1,12.49,6.43c1.89,2.72,3.59,5.57,5.34,8.39,1.59,2.57,3.1,5.19,4.71,7.75,4.14,6.54,10.41,8.88,17.79,8.63,4.38-.15,8.74-.75,13.12-1.11a32.87,32.87,0,0,1,4.09-.11c6.33.28,11.09,3.22,14.49,8.55a39.58,39.58,0,0,1,5.59,12.2c-1.32.05-2.45.13-3.57.13q-25.5,0-51,0c-1.24,0-2.48.14-4,.23V536.92H136.82c-.08-.76-.21-1.5-.24-2.25,0-1,0-1.95,0-2.93V136.45c0-19.49,6-37,17.43-52.69,10.14-13.93,23.36-24.27,38.41-32.39,15.4-8.32,31.86-13.69,49-17.15a217.34,217.34,0,0,1,53-4c26.37,1.2,51.85,6.43,75.78,18,15,7.25,28.44,16.69,39.22,29.57a86,86,0,0,1,19.47,44.11,188.82,188.82,0,0,1,1.3,33.28c-.33,8.77-.19,17.56-.26,26.34C429.9,182.46,429.91,183.42,429.91,184.43Zm-88-93.67a30.23,30.23,0,0,0-3.3-13.67c-3.28-6.41-8.58-9.64-15.8-9.71a25.93,25.93,0,0,0-12.64,3.15,52.31,52.31,0,0,0-11.93,8.91c-7.18,7-12.92,14.88-15.1,24.9-1.82,8.34-1.53,16.47,2.59,24.18,5.12,9.59,15.46,13.8,24.28,11.79a36.16,36.16,0,0,0,24-17.7C339.29,113.67,341.76,103.92,341.94,90.76Zm67.94,38.39a34.41,34.41,0,0,0-2.68-15.44c-2.8-6.26-7.45-10.11-14.49-10.74a25.34,25.34,0,0,0-15.43,3.48,56.31,56.31,0,0,0-24.57,28.86c-3.33,8.61-3.73,17.52-.08,26.26,4.5,10.78,15,16.33,26.39,13.82a34.14,34.14,0,0,0,21.24-14.53C406.81,151.36,409.61,140.6,409.88,129.15Zm-198.22-4.42A38.3,38.3,0,0,0,214.8,142c5.75,12.52,19.6,17.12,31.69,10.53A27.51,27.51,0,0,0,259,138.33c3.75-9.17,3.87-18.59,1.45-28.09C258.75,103.71,255.91,97.8,251,93c-6.66-6.55-18.32-8.56-26.37.88C216.94,102.93,211.42,112.91,211.66,124.73Z"/><path class="cls-2" d="M260.23,229a35.15,35.15,0,0,1,2.44-14c2.73-6.49,7.9-9.8,14.92-9.67a12.42,12.42,0,0,1,9.53,4.4,38.75,38.75,0,0,1,3.61,5.31c.76,1.24,1.29,2.62,1.93,3.93,1.68,3.43,2.45,3.72,6.23,3.14A56.79,56.79,0,0,1,309.31,221c6.57.24,11.91,6.09,12.25,12.67a18.08,18.08,0,0,1-3.07,10.79A34.53,34.53,0,0,1,304,257.27c-7.6,3.64-15.49,6.44-24,7.14a26.27,26.27,0,0,1-6.38-.39,6.57,6.57,0,0,1-4.57-3.4,72.16,72.16,0,0,1-4.29-8.28A64.53,64.53,0,0,1,260.23,229Z"/></g></g></svg>