<svg xmlns="http://www.w3.org/2000/svg" viewBox="0 0 498.45 216.87"><defs><style>.cls-1{fill:#004899;}</style></defs><g id="Capa_2" data-name="Capa 2"><g id="Capa_1-2" data-name="Capa 1"><path class="cls-1" d="M201,212.42H156.52V61.58c0-6,0-12,0-18a6.53,6.53,0,0,0-.52-2.74,2,2,0,0,1-.14-.34c-1-3.32-3.31-5.23-6.4-6.42a26.23,26.23,0,0,0-8.84-1.74,27.44,27.44,0,0,0-10.27,1.3,21.87,21.87,0,0,0-3.44,1.59,7.62,7.62,0,0,0-3.38,3.91.61.61,0,0,1-.05.12,14,14,0,0,0-1.42,6.48q.06,82.46,0,164.91v1.77H77.69c0-.51-.11-1-.11-1.47,0-6.78,0-13.56-.09-20.34,0-2.37-.12-4.73-.11-7.1q.06-15.92.16-31.85,0-6.48.08-13L77.86,98c0-6.57.13-13.15.11-19.72,0-8.86-.15-17.72-.24-26.58,0-1.42-.12-2.85-.12-4.28a26.29,26.29,0,0,1,.13-3.66c.43-3.19-.9-5.65-3.12-7.73a13,13,0,0,0-6.33-3A32.56,32.56,0,0,0,52,33.61c-4.34,1.28-8.05,4.56-8.06,11.15q-.09,83,0,165.89v1.76H.13c0-.28-.09-.58-.1-.89s0-.82,0-1.23Q0,125.2,0,40.11a19,19,0,0,1,1-6,40.07,40.07,0,0,1,10.5-17,51.07,51.07,0,0,1,13-8.87A76.86,76.86,0,0,1,45.26,1.82,98.51,98.51,0,0,1,63.81.51,81.94,81.94,0,0,1,87.45,4.08c2.75.88,5.34,2.22,8,3.37,1.24.53,2.48,1.07,3.68,1.67a2.72,2.72,0,0,0,2.57,0c1.51-.73,3.06-1.36,4.55-2.13a53,53,0,0,1,13.07-4.4A94.08,94.08,0,0,1,141.83.51a85.09,85.09,0,0,1,28.64,5.25,54,54,0,0,1,18.12,11,41.26,41.26,0,0,1,9.09,13,34.64,34.64,0,0,1,3,8.78,21.3,21.3,0,0,1,.36,3.65q0,84.42,0,168.83Z"/><path class="cls-1" d="M370.61.18c1.65-.28,42.78-.21,43.83.07V1.77q0,34.13,0,68.24a13.64,13.64,0,0,0,.47,3.87c.53,1.84,1,3.72,1.57,5.53A15.69,15.69,0,0,0,432.42,90a15.46,15.46,0,0,0,13-8.35,29.25,29.25,0,0,0,3-9.53,100.58,100.58,0,0,0,1-18.43c-.05-3.39-.15-6.78-.32-10.16-.25-4.93-.59-9.85-.87-14.78-.15-2.69-.29-5.38-.36-8.07-.1-4.25-.19-8.49-.16-12.73,0-2.08.29-4.15.46-6.23a6.52,6.52,0,0,1,.22-.95.93.93,0,0,1,1-.76h41.7c.48,0,1,0,1.53.07,0,.5.07.89.07,1.29q0,36.69,0,73.39a23.84,23.84,0,0,1-.93,5.16,49.63,49.63,0,0,1-6.83,16.41,51.69,51.69,0,0,1-6.46,8l-1.21,1.24c1,1,1.88,1.86,2.72,2.79a49.91,49.91,0,0,1,12.41,24.87c.61,3.33,1,6.7,1.56,10,.69,4.31,1.44,8.61,2.12,12.92A149.72,149.72,0,0,1,497.89,172c0,.55.2,1.14-.25,1.6-.55,0-.57-.42-.72-.73-.48-1-.92-2-1.46-3a1.77,1.77,0,0,0-2-1c.36,2.33,1.07,4.53,1.59,6.76s1.1,4.44,1.66,6.65,1.13,4.5,1.51,6.86l-5.14-4.79-.27.15c1.87,8.83,3.74,17.66,5.67,26.8-2-1.48-3.66-3.07-5.58-4.48a12.94,12.94,0,0,0-.17,3.36c0,1.1,0,2.2,0,3.31v3.29a3,3,0,0,1-2.11-.28c-1.78-.68-3.56-1.4-5.3-2.22a22.17,22.17,0,0,0-7.88-2.07,32.18,32.18,0,0,1-14-4.41c-6.75-3.9-10.69-9.9-12.76-17.27a59.8,59.8,0,0,1-2-14.51c-.07-2.78-.16-5.55-.11-8.33.07-3.91.29-7.83.4-11.74.1-3.51.22-7,.17-10.53a31.35,31.35,0,0,0-3.28-15.77c-2.36-4.7-6.31-7.22-11.43-8.06-5.48-.9-9.67,1.12-12.8,5.56a30.67,30.67,0,0,0-4.36,10.06,87.72,87.72,0,0,0-2.29,13.5,227.86,227.86,0,0,0-.68,27c.07,4.53.22,9.06.28,13.59q.11,8.15.11,16.29c0,1.58-.14,3.16-.23,4.8H369.92v-1.55c0-23.16.07-46.32,0-69.47a48.53,48.53,0,0,1,6.83-24.56,54.81,54.81,0,0,1,8-10.51c.19-.21.37-.43.65-.73-.31-.38-.61-.74-.9-1.11-2.1-2.66-4.29-5.25-6.28-8-3.23-4.42-4.94-9.53-6.54-14.7a23.8,23.8,0,0,1-1-7.22q0-36.33,0-72.65Z"/><path class="cls-1" d="M346.5,64.93a2.71,2.71,0,0,1-.59,0,13.83,13.83,0,0,0-8.08.33A20,20,0,0,0,328,71.8a12.67,12.67,0,0,0-2.74,9.28,8,8,0,0,0,7,7.26,15.09,15.09,0,0,0,13-4.08c.39-.35.74-.73,1.13-1.12.25.9.34,127.45.09,129.26H302.78v-85a4.57,4.57,0,0,1,.77-.14,13.81,13.81,0,0,0,9.66-4.15c3.15-3,4.77-6.77,5.69-10.9a41.76,41.76,0,0,0,.55-13.52A60.54,60.54,0,0,0,312,75.3a39.37,39.37,0,0,0-7.51-9.76,23.65,23.65,0,0,0-12.66-6A46.28,46.28,0,0,0,272.8,60.8a57.38,57.38,0,0,0-20.42,9.46,27,27,0,0,0-7.7,8.28,21.56,21.56,0,0,0-3.05,10.09c-.24,7.69,4.91,12.15,10,13.05a17.54,17.54,0,0,0,3.9,0c1.59-.07,3.17-.32,4.76-.33a6,6,0,0,1,5.23,2.69c.78,1.14,1.5,2.33,2.23,3.51s1.29,2.17,2,3.24c1.73,2.74,4.35,3.72,7.44,3.61,1.84-.06,3.66-.31,5.49-.46a12.21,12.21,0,0,1,1.71,0,7.25,7.25,0,0,1,6.07,3.58,16.51,16.51,0,0,1,2.33,5.1c-.55,0-1,.06-1.49.06H270c-.52,0-1,.06-1.67.1v89.68H223.87c0-.31-.09-.63-.1-.94s0-.82,0-1.22q0-82.71,0-165.4a36.61,36.61,0,0,1,7.3-22A46.86,46.86,0,0,1,247.13,9.25a73.65,73.65,0,0,1,20.49-7.17A90.76,90.76,0,0,1,289.8.42a80.62,80.62,0,0,1,31.71,7.51,48.33,48.33,0,0,1,16.41,12.38,35.85,35.85,0,0,1,8.14,18.45,79,79,0,0,1,.55,13.92c-.14,3.68-.08,7.35-.11,11ZM309.69,25.74A12.58,12.58,0,0,0,308.31,20,7,7,0,0,0,301.7,16a11,11,0,0,0-5.29,1.32,22.19,22.19,0,0,0-5,3.73c-3,2.92-5.4,6.23-6.32,10.42a14.26,14.26,0,0,0,1.09,10.12,9.36,9.36,0,0,0,10.16,4.93,15.12,15.12,0,0,0,10-7.41C308.58,35.32,309.62,31.24,309.69,25.74ZM338.12,41.8A14.41,14.41,0,0,0,337,35.34a7,7,0,0,0-6.06-4.49,10.62,10.62,0,0,0-6.46,1.45A23.5,23.5,0,0,0,314.2,44.38a14.29,14.29,0,0,0,0,11,9.43,9.43,0,0,0,11,5.78,14.33,14.33,0,0,0,8.88-6.08A23.81,23.81,0,0,0,338.12,41.8ZM255.18,40a16,16,0,0,0,1.32,7.24,9.3,9.3,0,0,0,13.26,4.41,11.51,11.51,0,0,0,5.21-6,18.34,18.34,0,0,0,.61-11.75,15,15,0,0,0-3.92-7.21c-2.79-2.75-7.67-3.59-11,.36C257.39,30.83,255.08,35,255.18,40Z"/><path class="cls-1" d="M275.51,83.56a14.52,14.52,0,0,1,1-5.87,6.22,6.22,0,0,1,6.24-4,5.21,5.21,0,0,1,4,1.85,16.35,16.35,0,0,1,1.51,2.22c.31.52.54,1.09.8,1.64.71,1.44,1,1.56,2.61,1.32a24,24,0,0,1,4.36-.46,5.56,5.56,0,0,1,5.12,5.3A7.52,7.52,0,0,1,299.88,90a14.46,14.46,0,0,1-6.06,5.38,28.66,28.66,0,0,1-10,3,10.87,10.87,0,0,1-2.67-.16,2.79,2.79,0,0,1-1.92-1.42,32.5,32.5,0,0,1-1.79-3.47A26.81,26.81,0,0,1,275.51,83.56Z"/></g></g></svg>