<svg xmlns="http://www.w3.org/2000/svg" viewBox="0 0 293.81 506.9"><defs><style>.cls-1{fill:#004899;}</style></defs><g id="Capa_2" data-name="Capa 2"><g id="Capa_1-2" data-name="Capa 1"><path class="cls-1" d="M293.34,154.41a6.27,6.27,0,0,1-1.4,0c-6.53-1.9-13-1.19-19.32.79a47.78,47.78,0,0,0-23.55,15.65A30.3,30.3,0,0,0,242.51,193c.75,9.09,7.38,15.86,16.76,17.35,11.92,1.9,22.12-1.82,31-9.74.94-.84,1.79-1.77,2.72-2.69.6,2.14.8,304.61.21,308.94H188.86V303.77a9,9,0,0,1,1.84-.33c9.13,0,16.62-3.88,23.07-9.92,7.55-7.07,11.4-16.17,13.62-26.06,2.39-10.69,2.44-21.49,1.31-32.31A144.9,144.9,0,0,0,211,179.21a93.85,93.85,0,0,0-18-23.33c-8.59-8-18.81-12.38-30.26-14.25-15.4-2.52-30.55-.89-45.54,2.91C99.54,149,83.09,156.23,68.4,167.15,61.05,172.6,54.56,178.87,50,186.94c-4.25,7.51-7,15.5-7.28,24.12-.57,18.37,11.75,29,24,31.19,3,.53,6.22.16,9.32,0,3.8-.18,7.58-.77,11.37-.8a14.34,14.34,0,0,1,12.49,6.43c1.89,2.72,3.59,5.57,5.33,8.39,1.6,2.57,3.1,5.19,4.72,7.75,4.13,6.54,10.41,8.87,17.79,8.63,4.38-.15,8.74-.75,13.12-1.11a32.87,32.87,0,0,1,4.09-.12c6.33.29,11.09,3.23,14.49,8.56a39.22,39.22,0,0,1,5.58,12.2c-1.32.05-2.44.13-3.57.13h-51c-1.24,0-2.48.14-4,.23V506.9H.26c-.08-.75-.21-1.5-.24-2.25,0-1,0-1.95,0-2.92V106.43C0,87,6,69.43,17.44,53.74,27.58,39.82,40.8,29.48,55.85,21.35,71.25,13,87.7,7.67,104.83,4.21a216.85,216.85,0,0,1,53-4c26.36,1.2,51.84,6.43,75.78,18,15,7.24,28.44,16.69,39.22,29.57a85.91,85.91,0,0,1,19.47,44.11,188.71,188.71,0,0,1,1.3,33.27c-.33,8.78-.19,17.57-.27,26.35Zm-88-93.67a30.22,30.22,0,0,0-3.3-13.66c-3.28-6.41-8.58-9.64-15.8-9.71a26,26,0,0,0-12.65,3.14,52.77,52.77,0,0,0-11.92,8.91c-7.18,7-12.92,14.88-15.1,24.91-1.82,8.34-1.53,16.47,2.59,24.18,5.12,9.59,15.46,13.8,24.28,11.78a36.13,36.13,0,0,0,24-17.7C202.72,83.66,205.2,73.9,205.38,60.74Zm67.94,38.4a34.43,34.43,0,0,0-2.68-15.45c-2.81-6.25-7.45-10.1-14.49-10.74a25.42,25.42,0,0,0-15.43,3.49,56.25,56.25,0,0,0-24.57,28.85c-3.33,8.61-3.73,17.53-.08,26.27,4.5,10.78,15,16.32,26.39,13.81a34.16,34.16,0,0,0,21.24-14.52C270.25,121.34,273.05,110.59,273.32,99.14ZM75.1,94.72A38.12,38.12,0,0,0,78.24,112c5.75,12.52,19.6,17.13,31.69,10.54a27.59,27.59,0,0,0,12.46-14.24c3.75-9.17,3.87-18.59,1.45-28.09-1.66-6.53-4.5-12.45-9.37-17.24-6.67-6.55-18.32-8.56-26.37.88C80.38,72.92,74.86,82.9,75.1,94.72Z"/><path class="cls-1" d="M123.67,198.94a35.1,35.1,0,0,1,2.44-14c2.73-6.49,7.9-9.8,14.92-9.67a12.38,12.38,0,0,1,9.53,4.4,38.65,38.65,0,0,1,3.61,5.3c.76,1.25,1.29,2.62,1.93,3.94,1.68,3.43,2.44,3.71,6.23,3.14A56.61,56.61,0,0,1,172.75,191c6.57.24,11.91,6.08,12.24,12.66a18,18,0,0,1-3.06,10.79,34.55,34.55,0,0,1-14.48,12.86c-7.6,3.64-15.49,6.44-24,7.14a26.23,26.23,0,0,1-6.37-.4,6.56,6.56,0,0,1-4.57-3.39,71.48,71.48,0,0,1-4.29-8.29A64.28,64.28,0,0,1,123.67,198.94Z"/></g></g></svg>