<svg xmlns="http://www.w3.org/2000/svg" viewBox="0 0 566.93 566.93"><defs><style>.cls-1{fill:#fff;}.cls-2{fill:#004899;}</style></defs><g id="Capa_2" data-name="Capa 2"><g id="Capa_1-2" data-name="Capa 1"><rect class="cls-1" width="566.93" height="566.93" rx="85.04"/><path class="cls-2" d="M235.28,387.45H190.76V236.61c0-6,0-12,0-18a6.53,6.53,0,0,0-.52-2.74,2,2,0,0,1-.14-.34c-.94-3.32-3.31-5.23-6.4-6.42a26.23,26.23,0,0,0-8.84-1.74,27.44,27.44,0,0,0-10.27,1.3,21.36,21.36,0,0,0-3.43,1.59,7.59,7.59,0,0,0-3.39,3.91.61.61,0,0,1-.05.12,14,14,0,0,0-1.42,6.48q.06,82.46,0,164.91v1.77H111.93c0-.51-.11-1-.11-1.47,0-6.78,0-13.56-.09-20.34,0-2.37-.12-4.73-.11-7.1q.06-15.91.16-31.85,0-6.48.08-13L112.1,273c0-6.57.13-13.15.11-19.72,0-8.86-.15-17.72-.24-26.58,0-1.42-.12-2.85-.12-4.28a27.93,27.93,0,0,1,.13-3.66c.43-3.19-.9-5.65-3.12-7.73a13,13,0,0,0-6.33-3,32.56,32.56,0,0,0-16.34.62c-4.34,1.28-8,4.56-8.06,11.15q-.09,82.95,0,165.89v1.76H34.37c0-.28-.09-.58-.1-.89s0-.82,0-1.23q0-85.1,0-170.18a19,19,0,0,1,1-6,40.07,40.07,0,0,1,10.5-17,51.07,51.07,0,0,1,13-8.87,76.86,76.86,0,0,1,20.75-6.41,98.51,98.51,0,0,1,18.55-1.31,81.94,81.94,0,0,1,23.64,3.57c2.75.88,5.34,2.22,8,3.37,1.24.53,2.48,1.07,3.68,1.67a2.72,2.72,0,0,0,2.57,0c1.51-.73,3.06-1.36,4.55-2.13a53,53,0,0,1,13.07-4.4,94.08,94.08,0,0,1,22.51-2.07,85.09,85.09,0,0,1,28.64,5.25,54,54,0,0,1,18.12,11,41.26,41.26,0,0,1,9.09,13,34.64,34.64,0,0,1,3,8.78,21.3,21.3,0,0,1,.36,3.65q0,84.42,0,168.83Z"/><path class="cls-2" d="M404.85,175.21c1.65-.28,42.78-.21,43.83.07v1.52q0,34.13,0,68.24a13.64,13.64,0,0,0,.47,3.87c.53,1.84.95,3.72,1.57,5.53a15.69,15.69,0,0,0,16,10.6,15.46,15.46,0,0,0,13-8.35,29.25,29.25,0,0,0,3-9.53,100.58,100.58,0,0,0,1-18.43c-.05-3.39-.15-6.78-.32-10.16-.25-4.93-.59-9.85-.87-14.78-.15-2.69-.29-5.38-.36-8.07-.1-4.25-.19-8.49-.16-12.74,0-2.07.29-4.14.46-6.22a6.52,6.52,0,0,1,.22-.95.93.93,0,0,1,1-.76h41.7c.48,0,1,.05,1.53.07,0,.5.07.89.07,1.29q0,36.69,0,73.39A23.84,23.84,0,0,1,526,255a49.63,49.63,0,0,1-6.83,16.41,51.69,51.69,0,0,1-6.46,8l-1.21,1.24c1,1,1.88,1.86,2.72,2.79a49.91,49.91,0,0,1,12.41,24.87c.61,3.33,1,6.7,1.56,10,.69,4.31,1.44,8.61,2.12,12.92A149.72,149.72,0,0,1,532.13,347c0,.55.2,1.14-.25,1.6-.55,0-.57-.42-.72-.73-.48-1-.92-2-1.46-3a1.77,1.77,0,0,0-2-1c.36,2.33,1.07,4.53,1.59,6.76s1.1,4.44,1.66,6.65,1.13,4.5,1.51,6.86l-5.14-4.79-.27.15c1.87,8.83,3.74,17.66,5.67,26.8-2-1.48-3.65-3.07-5.58-4.48a12.94,12.94,0,0,0-.17,3.36c0,1.1,0,2.2,0,3.31v3.29a3,3,0,0,1-2.11-.28c-1.78-.68-3.56-1.4-5.3-2.22a22.17,22.17,0,0,0-7.88-2.07,32.18,32.18,0,0,1-14-4.41c-6.75-3.9-10.69-9.9-12.76-17.27a59.8,59.8,0,0,1-2-14.51c-.07-2.78-.16-5.55-.11-8.33.07-3.91.29-7.83.4-11.74.1-3.51.22-7,.17-10.53A31.35,31.35,0,0,0,480,304.67c-2.36-4.7-6.31-7.22-11.43-8.06-5.48-.9-9.67,1.12-12.8,5.56a30.67,30.67,0,0,0-4.36,10.06,87.72,87.72,0,0,0-2.29,13.5,227.86,227.86,0,0,0-.68,27c.07,4.53.22,9.06.28,13.59q.11,8.14.11,16.29c0,1.58-.14,3.16-.23,4.8H404.16v-1.55c0-23.16.07-46.32,0-69.47A48.53,48.53,0,0,1,411,291.86a54.81,54.81,0,0,1,8-10.51c.19-.21.37-.43.65-.73-.31-.38-.61-.74-.9-1.11-2.1-2.66-4.29-5.25-6.28-8-3.23-4.42-4.94-9.53-6.54-14.7a23.8,23.8,0,0,1-1-7.22q0-36.33,0-72.65Z"/><path class="cls-2" d="M380.74,240a2.71,2.71,0,0,1-.59,0,13.83,13.83,0,0,0-8.08.33,20,20,0,0,0-9.86,6.55,12.67,12.67,0,0,0-2.74,9.28,8,8,0,0,0,7,7.26,15.09,15.09,0,0,0,13-4.08c.39-.35.74-.73,1.13-1.12.25.9.34,127.45.09,129.26H337v-85a4.57,4.57,0,0,1,.77-.14,13.81,13.81,0,0,0,9.66-4.15c3.15-3,4.77-6.77,5.69-10.9a41.76,41.76,0,0,0,.55-13.52,60.54,60.54,0,0,0-7.42-23.41,39.37,39.37,0,0,0-7.51-9.76,23.65,23.65,0,0,0-12.66-6A46.28,46.28,0,0,0,307,235.83a57.38,57.38,0,0,0-20.42,9.46,27,27,0,0,0-7.7,8.28,21.56,21.56,0,0,0-3.05,10.09c-.24,7.69,4.91,12.15,10,13a17.54,17.54,0,0,0,3.9,0c1.59-.07,3.17-.32,4.76-.33a6,6,0,0,1,5.23,2.69c.78,1.14,1.5,2.33,2.23,3.51s1.29,2.17,2,3.24c1.73,2.74,4.35,3.72,7.44,3.61,1.84-.06,3.66-.31,5.49-.46a12.26,12.26,0,0,1,1.71-.05,7.25,7.25,0,0,1,6.07,3.58,16.4,16.4,0,0,1,2.33,5.1c-.55,0-1,.06-1.49.06H304.21c-.52,0-1,.06-1.67.1v89.68H258.11c0-.31-.09-.63-.1-.94s0-.82,0-1.22q0-82.71,0-165.4a36.61,36.61,0,0,1,7.3-22,46.86,46.86,0,0,1,16.07-13.56,73.65,73.65,0,0,1,20.49-7.17A90.76,90.76,0,0,1,324,175.45,80.62,80.62,0,0,1,355.75,183a48.33,48.33,0,0,1,16.41,12.38,35.85,35.85,0,0,1,8.14,18.45,79,79,0,0,1,.55,13.92c-.14,3.68-.08,7.35-.11,11Zm-36.81-39.19a12.58,12.58,0,0,0-1.38-5.72,7,7,0,0,0-6.61-4.07,11,11,0,0,0-5.29,1.32,22.19,22.19,0,0,0-5,3.73c-3,2.92-5.4,6.23-6.32,10.42a14.26,14.26,0,0,0,1.09,10.12,9.36,9.36,0,0,0,10.16,4.93,15.12,15.12,0,0,0,10-7.41C342.82,210.35,343.86,206.27,343.93,200.77Zm28.43,16.06a14.41,14.41,0,0,0-1.12-6.46,7,7,0,0,0-6.06-4.49,10.62,10.62,0,0,0-6.46,1.45,23.5,23.5,0,0,0-10.28,12.08,14.29,14.29,0,0,0,0,11,9.43,9.43,0,0,0,11,5.78,14.33,14.33,0,0,0,8.88-6.08A23.81,23.81,0,0,0,372.36,216.83ZM289.42,215a16,16,0,0,0,1.32,7.24A9.3,9.3,0,0,0,304,226.63a11.51,11.51,0,0,0,5.21-6,18.34,18.34,0,0,0,.61-11.75,15,15,0,0,0-3.92-7.21c-2.79-2.75-7.67-3.59-11,.36C291.63,205.86,289.32,210,289.42,215Z"/><path class="cls-2" d="M309.75,258.59a14.52,14.52,0,0,1,1-5.87,6.22,6.22,0,0,1,6.24-4.05,5.21,5.21,0,0,1,4,1.85,16.35,16.35,0,0,1,1.51,2.22c.31.52.54,1.09.8,1.64.71,1.44,1,1.56,2.61,1.32a24,24,0,0,1,4.36-.46,5.56,5.56,0,0,1,5.12,5.3,7.52,7.52,0,0,1-1.28,4.52,14.46,14.46,0,0,1-6.06,5.38,28.66,28.66,0,0,1-10,3,10.87,10.87,0,0,1-2.67-.16,2.75,2.75,0,0,1-1.91-1.42,30.83,30.83,0,0,1-1.8-3.47A26.81,26.81,0,0,1,309.75,258.59Z"/></g></g></svg>